<svg height="798" width="720" xmlns="http://www.w3.org/2000/svg">
<rect height="798" fill="#555" width="720"></rect>
<text fill="#7f7" font-family="Courier New" font-size="12" xml:space="preserve">
<tspan x="10" y="26">2 megabytes installed</tspan>
<tspan x="10" y="42"></tspan>
<tspan x="10" y="58">node_modules</tspan>
<tspan x="10" y="74">└─┬ yargs@7.1.0 </tspan>
<tspan x="10" y="90">  ├── camelcase@3.0.0 </tspan>
<tspan x="10" y="106">  ├─┬ cliui@3.2.0 </tspan>
<tspan x="10" y="122">  │ ├─┬ strip-ansi@3.0.1 </tspan>
<tspan x="10" y="138">  │ │ └── ansi-regex@2.1.1 </tspan>
<tspan x="10" y="154">  │ └── wrap-ansi@2.1.0 </tspan>
<tspan x="10" y="170">  ├── decamelize@1.2.0 </tspan>
<tspan x="10" y="186">  ├── get-caller-file@1.0.2 </tspan>
<tspan x="10" y="202">  ├─┬ os-locale@1.4.0 </tspan>
<tspan x="10" y="218">  │ └─┬ lcid@1.0.0 </tspan>
<tspan x="10" y="234">  │   └── invert-kv@1.0.0 </tspan>
<tspan x="10" y="250">  ├─┬ read-pkg-up@1.0.1 </tspan>
<tspan x="10" y="266">  │ ├─┬ find-up@1.1.2 </tspan>
<tspan x="10" y="282">  │ │ ├── path-exists@2.1.0 </tspan>
<tspan x="10" y="298">  │ │ └─┬ pinkie-promise@2.0.1 </tspan>
<tspan x="10" y="314">  │ │   └── pinkie@2.0.4 </tspan>
<tspan x="10" y="330">  │ └─┬ read-pkg@1.1.0 </tspan>
<tspan x="10" y="346">  │   ├─┬ load-json-file@1.1.0 </tspan>
<tspan x="10" y="362">  │   │ ├── graceful-fs@4.1.11 </tspan>
<tspan x="10" y="378">  │   │ ├─┬ parse-json@2.2.0 </tspan>
<tspan x="10" y="394">  │   │ │ └─┬ error-ex@1.3.1 </tspan>
<tspan x="10" y="410">  │   │ │   └── is-arrayish@0.2.1 </tspan>
<tspan x="10" y="426">  │   │ ├── pify@2.3.0 </tspan>
<tspan x="10" y="442">  │   │ └─┬ strip-bom@2.0.0 </tspan>
<tspan x="10" y="458">  │   │   └── is-utf8@0.2.1 </tspan>
<tspan x="10" y="474">  │   ├─┬ normalize-package-data@2.3.6 </tspan>
<tspan x="10" y="490">  │   │ ├── hosted-git-info@2.4.2 </tspan>
<tspan x="10" y="506">  │   │ ├─┬ is-builtin-module@1.0.0 </tspan>
<tspan x="10" y="522">  │   │ │ └── builtin-modules@1.1.1 </tspan>
<tspan x="10" y="538">  │   │ ├── semver@5.3.0 </tspan>
<tspan x="10" y="554">  │   │ └─┬ validate-npm-package-license@3.0.1 </tspan>
<tspan x="10" y="570">  │   │   ├─┬ spdx-correct@1.0.2 </tspan>
<tspan x="10" y="586">  │   │   │ └── spdx-license-ids@1.2.2 </tspan>
<tspan x="10" y="602">  │   │   └── spdx-expression-parse@1.0.4 </tspan>
<tspan x="10" y="618">  │   └── path-type@1.1.0 </tspan>
<tspan x="10" y="634">  ├── require-directory@2.1.1 </tspan>
<tspan x="10" y="650">  ├── require-main-filename@1.0.1 </tspan>
<tspan x="10" y="666">  ├── set-blocking@2.0.0 </tspan>
<tspan x="10" y="682">  ├─┬ string-width@1.0.2 </tspan>
<tspan x="10" y="698">  │ ├── code-point-at@1.1.0 </tspan>
<tspan x="10" y="714">  │ └─┬ is-fullwidth-code-point@1.0.0 </tspan>
<tspan x="10" y="730">  │   └── number-is-nan@1.0.1 </tspan>
<tspan x="10" y="746">  ├── which-module@1.0.0 </tspan>
<tspan x="10" y="762">  ├── y18n@3.2.1 </tspan>
<tspan x="10" y="778">  └── yargs-parser@5.0.0</tspan>
</text>
</svg>
